<svg width="24" height="24" viewBox="0 0 24 24" xmlns="http://www.w3.org/2000/svg"><g id="SVGRepo_bgCarrier" stroke-width="0"></g><g id="SVGRepo_tracerCarrier" stroke-linecap="round" stroke-linejoin="round"></g><g id="SVGRepo_iconCarrier"> <path fill-rule="evenodd" clip-rule="evenodd" d="M15.1581 7.81489C15.883 8.5467 16.8886 9 18 9C20.2091 9 22 7.20914 22 5C22 2.79086 20.2091 1 18 1C15.7909 1 14 2.79086 14 5C14 5.37703 14.0522 5.74188 14.1497 6.08773L8.84197 9.18518C8.11707 8.45333 7.11147 8 6 8C3.79086 8 2 9.79086 2 12C2 14.2091 3.79086 16 6 16C7.11165 16 8.11739 15.5465 8.84231 14.8145L14.1509 17.9079C14.0526 18.255 14 18.6214 14 19C14 21.2091 15.7909 23 18 23C20.2091 23 22 21.2091 22 19C22 16.7909 20.2091 15 18 15C16.8902 15 15.8859 15.452 15.1613 16.1819L9.85049 13.0872C9.94789 12.7415 10 12.3768 10 12C10 11.623 9.94784 11.2582 9.85036 10.9124L15.1581 7.81489ZM18 3C16.8954 3 16 3.89543 16 5C16 5.3474 16.0886 5.67412 16.2444 5.95879C16.2545 5.97417 16.2643 5.98992 16.2737 6.00602C16.283 6.022 16.2918 6.03813 16.3002 6.05439C16.6531 6.62207 17.2824 7 18 7C19.1046 7 20 6.10457 20 5C20 3.89543 19.1046 3 18 3ZM7.69959 10.9453C7.708 10.9617 7.71691 10.978 7.72632 10.9941C7.73579 11.0103 7.74565 11.0262 7.75588 11.0417C7.91152 11.3262 8 11.6528 8 12C8 12.3474 7.9114 12.6742 7.75556 12.9589C7.74533 12.9744 7.73547 12.9903 7.726 13.0066C7.71682 13.0223 7.70812 13.0382 7.69989 13.0543C7.34703 13.622 6.71765 14 6 14C4.89543 14 4 13.1046 4 12C4 10.8954 4.89543 10 6 10C6.71745 10 7.34667 10.3778 7.69959 10.9453ZM16 19C16 18.6749 16.0776 18.368 16.2152 18.0966C16.2399 18.0641 16.2629 18.0297 16.284 17.9935C16.3042 17.9588 16.3221 17.9234 16.3378 17.8874C16.6967 17.3522 17.3072 17 18 17C19.1046 17 20 17.8954 20 19C20 20.1046 19.1046 21 18 21C16.8954 21 16 20.1046 16 19Z"></path> </g></svg>
